<?xml version="1.0" encoding="utf-8" ?>
<svg baseProfile="tiny" height="100%" version="1.2" width="100%" xmlns="http://www.w3.org/2000/svg" xmlns:ev="http://www.w3.org/2001/xml-events" xmlns:xlink="http://www.w3.org/1999/xlink"><defs /><circle cx="141.07999999999876" cy="184.9679999999978" fill="#8fddff" r="5" /><circle cx="150.1369999999973" cy="194.46999999999548" fill="#8fddff" r="5" /><circle cx="160.62699999999808" cy="195.35299999999722" fill="#8fddff" r="5" /><circle cx="173.16999999999894" cy="200.40599999998676" fill="#8fddff" r="5" /><circle cx="179.19099999999943" cy="202.82499999999004" fill="#8fddff" r="5" /><circle cx="188.25199999999853" cy="202.6909999999873" fill="#8fddff" r="5" /><circle cx="195.65899999999914" cy="202.3889999999966" fill="#8fddff" r="5" /><circle cx="203.32699999999804" cy="202.45299999999133" fill="#8fddff" r="5" /><circle cx="212.3439999999981" cy="201.83600000000013" fill="#8fddff" r="5" /><circle cx="220.9319999999977" cy="201.556999999994" fill="#8fddff" r="5" /><circle cx="230.3949999999979" cy="201.32699999999204" fill="#8fddff" r="5" /><circle cx="240.24599999999907" cy="201.0489999999976" fill="#8fddff" r="5" /><circle cx="251.33499999999742" cy="204.6099999999882" fill="#8fddff" r="5" /><circle cx="263.12599999999975" cy="204.29499999998768" fill="#8fddff" r="5" /><circle cx="269.8319999999974" cy="204.12899999999468" fill="#8fddff" r="5" /><circle cx="277.982999999999" cy="201.91399999998794" fill="#8fddff" r="5" /><circle cx="290.83499999999776" cy="199.51199999999858" fill="#8fddff" r="5" /><circle cx="299.5020000000004" cy="199.23799999999403" fill="#8fddff" r="5" /><circle cx="308.59799999999996" cy="198.93199999999922" fill="#8fddff" r="5" /><circle cx="319.9589999999972" cy="198.60599999999806" fill="#8fddff" r="5" /><circle cx="329.57199999999887" cy="198.31699999998875" fill="#8fddff" r="5" /><circle cx="334.9529999999987" cy="192.72899999999993" fill="#8fddff" r="5" /><circle cx="87.53300000000053" cy="297.00899999998853" fill="#8fddff" r="5" /><circle cx="99.82199999999963" cy="292.2789999999935" fill="#8fddff" r="5" /><circle cx="112.6429999999985" cy="289.11499999999535" fill="#8fddff" r="5" /><circle cx="124.06700000000015" cy="272.26699999999937" fill="#8fddff" r="5" /><circle cx="124.94299999999825" cy="261.80699999999035" fill="#8fddff" r="5" /><circle cx="132.53699999999924" cy="254.91399999999942" fill="#8fddff" r="5" /><circle cx="139.71899999999948" cy="254.74999999998715" fill="#8fddff" r="5" /><circle cx="151.79200000000037" cy="255.786999999998" fill="#8fddff" r="5" /><circle cx="156.69799999999867" cy="248.7249999999932" fill="#8fddff" r="5" /><circle cx="162.83699999999968" cy="239.39399999999011" fill="#8fddff" r="5" /><circle cx="171.85399999999973" cy="235.1639999999975" fill="#8fddff" r="5" /><circle cx="179.52399999999713" cy="227.84199999999544" fill="#8fddff" r="5" /><circle cx="183.61699999999814" cy="219.9189999999902" fill="#8fddff" r="5" /><circle cx="186.38099999999724" cy="211.66299999998728" fill="#8fddff" r="5" /><circle cx="188.25199999999853" cy="202.6909999999873" fill="#8fddff" r="5" /><circle cx="192.2879999999978" cy="188.53699999999662" fill="#8fddff" r="5" /><circle cx="197.51299999999716" cy="181.13400000000013" fill="#8fddff" r="5" /><circle cx="200.72899999999905" cy="173.95899999999642" fill="#8fddff" r="5" /><circle cx="207.79299999999878" cy="160.77999999998838" fill="#8fddff" r="5" /><circle cx="212.40999999999843" cy="155.68399999999372" fill="#8fddff" r="5" /><circle cx="216.2399999999991" cy="145.51999999999055" fill="#8fddff" r="5" /><circle cx="223.3099999999979" cy="127.53899999999874" fill="#8fddff" r="5" /><circle cx="220.88299999999705" cy="121.00999999999829" fill="#8fddff" r="5" /><circle cx="233.629999999998" cy="116.35599999999613" fill="#8fddff" r="5" /><circle cx="240.68999999999718" cy="110.93199999999115" fill="#8fddff" r="5" /><circle cx="248.72999999999834" cy="97.48799999999846" fill="#8fddff" r="5" /><circle cx="253.30499999999745" cy="67.14399999999898" fill="#8fddff" r="5" /><circle cx="258.1249999999997" cy="55.684999999996876" fill="#8fddff" r="5" /><circle cx="262.90299999999786" cy="43.30799999999613" fill="#8fddff" r="5" /><circle cx="270.07899999999904" cy="26.30800000000022" fill="#8fddff" r="5" /><circle cx="272.7819999999994" cy="9.45399999999097" fill="#8fddff" r="5" /><circle cx="285.5469999999975" cy="0.0" fill="#8fddff" r="5" /><circle cx="100.82699999999889" cy="154.39899999999795" fill="#8fddff" r="5" /><circle cx="118.93699999999896" cy="159.6529999999916" fill="#8fddff" r="5" /><circle cx="132.21300000000014" cy="164.99399999999298" fill="#8fddff" r="5" /><circle cx="132.10399999999822" cy="165.13899999999637" fill="#8fddff" r="5" /><circle cx="150.51300000000012" cy="174.95999999999867" fill="#8fddff" r="5" /><circle cx="273.43600000000026" cy="201.90099999999234" fill="#8fddff" r="5" /><circle cx="165.93400000000003" cy="175.82299999999407" fill="#8fddff" r="5" /><circle cx="174.70499999999944" cy="177.8189999999995" fill="#8fddff" r="5" /><circle cx="185.35799999999725" cy="183.6579999999941" fill="#8fddff" r="5" /><circle cx="192.2879999999978" cy="188.53699999999662" fill="#8fddff" r="5" /><circle cx="200.90199999999925" cy="194.44499999998754" fill="#8fddff" r="5" /><circle cx="210.05199999999746" cy="192.33699999999487" fill="#8fddff" r="5" /><circle cx="212.3439999999981" cy="201.83600000000013" fill="#8fddff" r="5" /><circle cx="210.63999999999794" cy="217.07499999999413" fill="#8fddff" r="5" /><circle cx="205.32099999999787" cy="226.2669999999929" fill="#8fddff" r="5" /><circle cx="210.03199999999822" cy="237.44799999998634" fill="#8fddff" r="5" /><circle cx="220.66699999999884" cy="247.71099999999535" fill="#8fddff" r="5" /><circle cx="273.43600000000026" cy="201.90099999999234" fill="#8fddff" r="5" /><circle cx="165.1050000000005" cy="438.0729999999886" fill="#8fddff" r="5" /><circle cx="273.43600000000026" cy="201.90099999999234" fill="#8fddff" r="5" /><circle cx="273.43600000000026" cy="201.90099999999234" fill="#8fddff" r="5" /><circle cx="273.43600000000026" cy="201.90099999999234" fill="#8fddff" r="5" /><circle cx="173.28999999999795" cy="389.2759999999953" fill="#8fddff" r="5" /><circle cx="273.43600000000026" cy="201.90099999999234" fill="#8fddff" r="5" /><circle cx="273.43600000000026" cy="201.90099999999234" fill="#8fddff" r="5" /><circle cx="171.61899999999974" cy="345.96399999999505" fill="#8fddff" r="5" /><circle cx="176.2309999999978" cy="323.3539999999948" fill="#8fddff" r="5" /><circle cx="172.21299999999928" cy="304.33199999998806" fill="#8fddff" r="5" /><circle cx="162.03999999999752" cy="291.86599999999885" fill="#8fddff" r="5" /><circle cx="170.02099999999842" cy="268.7619999999953" fill="#8fddff" r="5" /><circle cx="173.43799999999732" cy="259.0419999999938" fill="#8fddff" r="5" /><circle cx="175.2299999999991" cy="248.31599999998843" fill="#8fddff" r="5" /><circle cx="176.61199999999866" cy="240.26399999999626" fill="#8fddff" r="5" /><circle cx="179.52399999999713" cy="227.84199999999544" fill="#8fddff" r="5" /><circle cx="180.30599999999808" cy="217.77899999999306" fill="#8fddff" r="5" /><circle cx="179.19099999999943" cy="202.82499999999004" fill="#8fddff" r="5" /><circle cx="180.9379999999976" cy="191.86399999999537" fill="#8fddff" r="5" /><circle cx="185.35799999999725" cy="183.6579999999941" fill="#8fddff" r="5" /><circle cx="192.25299999999734" cy="169.12699999998893" fill="#8fddff" r="5" /><circle cx="198.72999999999763" cy="155.1639999999992" fill="#8fddff" r="5" /><circle cx="201.29899999999878" cy="149.61099999999306" fill="#8fddff" r="5" /><circle cx="196.120999999998" cy="123.14799999998627" fill="#8fddff" r="5" /><circle cx="194.02399999999886" cy="95.11599999999021" fill="#8fddff" r="5" /><circle cx="273.43600000000026" cy="201.90099999999234" fill="#8fddff" r="5" /><circle cx="194.25899999999885" cy="79.41599999999482" fill="#8fddff" r="5" /><circle cx="197.61399999999796" cy="74.26199999999028" fill="#8fddff" r="5" /><circle cx="197.25700000000046" cy="62.48499999999524" fill="#8fddff" r="5" /><circle cx="220.66699999999884" cy="247.71099999999535" fill="#8fddff" r="5" /><circle cx="273.43600000000026" cy="201.90099999999234" fill="#8fddff" r="5" /><circle cx="273.43600000000026" cy="201.90099999999234" fill="#8fddff" r="5" /><circle cx="253.64799999999832" cy="297.50699999999597" fill="#8fddff" r="5" /><circle cx="276.0499999999979" cy="313.54899999999475" fill="#8fddff" r="5" /><circle cx="276.0499999999979" cy="313.54899999999475" fill="#8fddff" r="5" /><circle cx="190.88899999999853" cy="130.06999999998925" fill="#8fddff" r="5" /><circle cx="198.72999999999763" cy="155.1639999999992" fill="#8fddff" r="5" /><circle cx="196.120999999998" cy="123.14799999998627" fill="#8fddff" r="5" /><circle cx="209.41900000000047" cy="141.50799999998753" fill="#8fddff" r="5" /><circle cx="223.3099999999979" cy="127.53899999999874" fill="#8fddff" r="5" /><circle cx="0.0" cy="690.9579999999949" fill="#8fddff" r="5" /><circle cx="229.4640000000001" cy="144.42099999999414" fill="#8fddff" r="5" /><circle cx="273.43600000000026" cy="201.90099999999234" fill="#8fddff" r="5" /><circle cx="246.300999999999" cy="173.5259999999954" fill="#8fddff" r="5" /><circle cx="240.0229999999972" cy="185.22999999999" fill="#8fddff" r="5" /><circle cx="240.24599999999907" cy="201.0489999999976" fill="#8fddff" r="5" /><circle cx="236.39099999999758" cy="219.79499999999064" fill="#8fddff" r="5" /><circle cx="223.32199999999958" cy="230.48699999999656" fill="#8fddff" r="5" /><circle cx="220.66699999999884" cy="247.71099999999535" fill="#8fddff" r="5" /><circle cx="203.3769999999997" cy="245.25299999999106" fill="#8fddff" r="5" /><circle cx="273.43600000000026" cy="201.90099999999234" fill="#8fddff" r="5" /><circle cx="184.53999999999837" cy="264.1529999999932" fill="#8fddff" r="5" /><circle cx="173.43799999999732" cy="259.0419999999938" fill="#8fddff" r="5" /><circle cx="273.43600000000026" cy="201.90099999999234" fill="#8fddff" r="5" /><circle cx="156.69799999999867" cy="248.7249999999932" fill="#8fddff" r="5" /><circle cx="139.71899999999948" cy="254.74999999998715" fill="#8fddff" r="5" /><circle cx="273.43600000000026" cy="201.90099999999234" fill="#8fddff" r="5" /><circle cx="146.9719999999981" cy="215.43599999999685" fill="#8fddff" r="5" /><circle cx="143.45499999999944" cy="216.12700000000018" fill="#8fddff" r="5" /><circle cx="155.8289999999971" cy="202.305999999993" fill="#8fddff" r="5" /><circle cx="150.1369999999973" cy="194.46999999999548" fill="#8fddff" r="5" /><circle cx="150.51300000000012" cy="174.95999999999867" fill="#8fddff" r="5" /><circle cx="265.3409999999994" cy="636.770999999996" fill="#8fddff" r="5" /><circle cx="152.76799999999824" cy="155.8199999999914" fill="#8fddff" r="5" /><circle cx="273.43600000000026" cy="201.90099999999234" fill="#8fddff" r="5" /><circle cx="273.43600000000026" cy="201.90099999999234" fill="#8fddff" r="5" /><circle cx="190.88899999999853" cy="130.06999999998925" fill="#8fddff" r="5" /></svg>